<svg xmlns="http://www.w3.org/2000/svg" width="197.5" height="40" style="enable-background:new 0 0 197.5 40" xml:space="preserve"><path d="M0 40V0h12.1l7.3 27.3L26.5 0h12.1v40h-7.5V8.5L23.2 40h-7.8L7.5 8.5V40H0zm82.8 0H74l-3.5-9.1h-16L51.3 40h-8.6L58.3 0h8.5l16 40zM67.9 24.2 62.4 9.3 57 24.2h10.9zM85.3 40v-7.3l21-25.9H87.7V0H117v6.3l-21.9 27h22.8V40H85.3zM123 0h14.8c3.3 0 5.9.3 7.6.8 2.3.7 4.4 1.9 6 3.7 1.7 1.9 3 4.1 3.8 6.5.9 2.6 1.3 5.7 1.3 9.4.1 2.9-.4 5.8-1.2 8.5S153 34 151 36c-1.6 1.5-3.6 2.6-5.7 3.2-1.8.6-4.2.8-7.1.8H123V0zm8.1 6.8v26.5h6c2.3 0 3.9-.1 4.9-.4 1.2-.3 2.3-.8 3.3-1.7.9-.8 1.6-2.1 2.1-3.9s.8-4.2.8-7.3-.3-5.5-.8-7.1c-.4-1.5-1.2-2.8-2.3-3.9-1.1-1-2.4-1.6-3.7-1.9-1.1-.3-3.3-.4-6.6-.4l-3.7.1zM197.5 40h-8.8l-3.5-9.1h-16l-3.3 9.1h-8.6l15.6-40h8.5l16.1 40zm-14.9-15.8-5.5-14.8-5.4 14.8h10.9z" style="fill:#132530"/></svg>