<svg xmlns="http://www.w3.org/2000/svg" width="187.9" height="40" style="enable-background:new 0 0 187.9 40" xml:space="preserve"><path d="m0 26.7 7.6-.7c.5 2.5 1.4 4.4 2.8 5.6 1.4 1.2 3.3 1.8 5.7 1.8 2.5 0 4.4-.5 5.7-1.6 1.3-1.1 1.9-2.3 1.9-3.7 0-.9-.3-1.7-.8-2.3-.5-.6-1.5-1.2-2.8-1.7-.9-.3-3-.9-6.2-1.7-4.2-1-7.1-2.3-8.8-3.8-2.3-1.9-3.6-4.8-3.6-7.8 0-2 .6-3.9 1.7-5.5 1.1-1.8 2.8-3.2 4.7-4C10 .4 12.6 0 15.5 0c4.9 0 8.5 1.1 11 3.2s3.7 5 3.9 8.5l-7.9.3c-.3-2-1-3.4-2.1-4.3s-2.7-1.3-4.9-1.3c-2.3 0-4 .5-5.3 1.4-.8.5-1.3 1.4-1.2 2.4 0 .9.4 1.8 1.2 2.3 1 .8 3.4 1.7 7.2 2.6 3.8.9 6.6 1.8 8.4 2.8 1.8.9 3.2 2.3 4.3 3.9 1 1.7 1.5 3.7 1.5 6.2 0 2.2-.6 4.4-1.8 6.2-1.2 1.9-3.1 3.5-5.2 4.3-2.5 1-5.3 1.5-8.6 1.5-4.9 0-8.6-1.1-11.2-3.4C2.1 34.3.6 31.1 0 26.7zm37.6 12.6V.7h7.8v17.2L61.2.7h10.5l-14.6 15 15.3 23.6h-10L51.7 21.2l-6.3 6.5v11.7l-7.8-.1zm34.8-19.1c0-3.9.6-7.2 1.8-9.9.9-2 2.1-3.8 3.6-5.3 1.4-1.5 3.1-2.7 5-3.5C85.4.4 88.3-.1 91.1 0c5.7 0 10.2 1.8 13.7 5.3 3.4 3.5 5.1 8.4 5.1 14.7 0 6.2-1.7 11.1-5.1 14.6S96.9 40 91.3 40c-5.7 0-10.3-1.8-13.7-5.3-3.4-3.5-5.1-8.3-5.2-14.5zm8.1-.2c0 4.4 1 7.7 3 9.9 3.9 4.2 10.5 4.5 14.7.7l.6-.6c2-2.2 3-5.6 3-10.1 0-4.4-1-7.7-2.9-9.9s-4.5-3.3-7.7-3.3-5.8 1.1-7.8 3.3c-1.9 2.2-2.9 5.5-2.9 10zM115.9.7h14.3c3.2 0 5.7.2 7.4.7 2.2.6 4.2 1.9 5.8 3.6 1.7 1.8 2.9 3.9 3.7 6.2.8 2.5 1.2 5.5 1.2 9.1.1 2.8-.3 5.6-1.2 8.2-.8 2.6-2.2 4.9-4.1 6.8-1.6 1.4-3.4 2.5-5.5 3.1-1.7.6-4 .8-6.9.8h-14.7V.7zm7.8 6.5v25.6h5.8c1.6.1 3.2-.1 4.7-.4 1.2-.3 2.2-.8 3.1-1.6.8-.8 1.5-2 2-3.7s.8-4.1.8-7.1-.3-5.3-.8-6.9c-.4-1.4-1.2-2.7-2.2-3.7-1-.9-2.3-1.6-3.6-1.8-1.1-.2-3.2-.4-6.4-.4h-3.4zm64.1 32.1h-8.5l-3.4-8.8h-15.4l-3.2 8.8H149L164.1.7h8.2l15.5 38.6zM173.5 24l-5.3-14.3-5.3 14.3h10.6z" style="fill:#132530"/></svg>